<svg width="20" height="21" viewBox="0 0 20 21" fill="none" xmlns="http://www.w3.org/2000/svg">
<g clip-path="url(#clip0)">
<path d="M18.0876 14.0371L16.9605 17.8478L14.748 17.2427L18.0876 14.0371Z" fill="#E4761B" stroke="#E4761B" stroke-width="0.04619"/>
<path d="M14.748 17.2427L16.882 14.3189L18.0876 14.0371L14.748 17.2427Z" fill="#E4761B" stroke="#E4761B" stroke-width="0.04619"/>
<path d="M16.4297 11.1629L18.0879 14.0359L16.8823 14.3176L16.4297 11.1629ZM16.4297 11.1629L17.4967 10.4238L18.0879 14.0359L16.4297 11.1629Z" fill="#F6851B" stroke="#F6851B" stroke-width="0.04619"/>
<path d="M15.0713 8.9927L18.1383 7.73633L17.9859 8.42456L15.0713 8.9927ZM17.8889 9.25136L15.0713 8.9927L17.9859 8.42456L17.8889 9.25136Z" fill="#763D16" stroke="#763D16" stroke-width="0.04619"/>
<path d="M17.8889 9.25136L17.4963 10.4246L15.0713 8.9927L17.8889 9.25136ZM18.5032 8.02733L17.9859 8.42456L18.1383 7.73633L18.5032 8.02733ZM17.8889 9.25136L17.9859 8.42456L18.397 8.76637L17.8889 9.25136Z" fill="#763D16" stroke="#763D16" stroke-width="0.04619"/>
<path d="M12.3701 16.3145L13.1369 16.5593L14.7489 17.2429L12.3701 16.3145Z" fill="#E2761B" stroke="#E2761B" stroke-width="0.04619"/>
<path d="M17.4969 10.4241L17.8896 9.25085L18.2267 9.50952L17.4969 10.4241ZM17.4969 10.4241L14.3145 9.37556L15.072 8.99219L17.4969 10.4241Z" fill="#763D16" stroke="#763D16" stroke-width="0.04619"/>
<path d="M15.8295 5.39453L15.072 8.99274L14.3145 9.37611L15.8295 5.39453Z" fill="#763D16" stroke="#763D16" stroke-width="0.04619"/>
<path d="M18.1383 7.73637L15.0713 8.99273L15.8288 5.39453L18.1383 7.73637Z" fill="#763D16" stroke="#763D16" stroke-width="0.04619"/>
<path d="M15.8291 5.39491L19.0301 5.02539L18.1386 7.73675L15.8291 5.39491Z" fill="#763D16" stroke="#763D16" stroke-width="0.04619"/>
<path d="M17.4969 10.4235L16.43 11.1626L14.3145 9.375L17.4969 10.4235Z" fill="#F6851B" stroke="#F6851B" stroke-width="0.04619"/>
<path d="M18.8915 2.43359L19.0301 5.02486L15.8291 5.39438L18.8915 2.43359Z" fill="#763D16" stroke="#763D16" stroke-width="0.04619"/>
<path d="M18.8916 2.43359L12.4943 7.08493L12.4111 3.93015L18.8916 2.43359Z" fill="#E2761B" stroke="#E2761B" stroke-width="0.04619"/>
<path d="M7.65332 3.55078L12.4109 3.92954L12.494 7.08432L7.65332 3.55078Z" fill="#F6851B" stroke="#F6851B" stroke-width="0.04619"/>
<path d="M14.314 9.37611L12.4941 7.08509L15.8291 5.39453L14.314 9.37611Z" fill="#763D16" stroke="#763D16" stroke-width="0.04619"/>
<path d="M14.3135 9.375L16.429 11.1626L13.459 11.4905L14.3135 9.375Z" fill="#E4761B" stroke="#E4761B" stroke-width="0.04619"/>
<path d="M13.4595 11.4905L12.4941 7.08398L14.314 9.37501L13.4595 11.4905Z" fill="#E4761B" stroke="#E4761B" stroke-width="0.04619"/>
<path d="M15.8291 5.39438L12.4941 7.08493L18.8915 2.43359L15.8291 5.39438Z" fill="#763D16" stroke="#763D16" stroke-width="0.04619"/>
<path d="M7.69543 17.1687L9.20585 18.7437L7.15039 16.873L7.69543 17.1687Z" fill="#C0AD9E" stroke="#C0AD9E" stroke-width="0.04619"/>
<path d="M14.748 17.2422L15.464 14.5216L16.882 14.3184L14.748 17.2422Z" fill="#CD6116" stroke="#CD6116" stroke-width="0.04619"/>
<path d="M1.57031 9.58815L4.18467 6.83984L1.9075 9.2602L1.57031 9.58815Z" fill="#E2761B" stroke="#E2761B" stroke-width="0.04619"/>
<path d="M16.8821 14.3177L15.4641 14.5209L16.4294 11.1629L16.8821 14.3177ZM12.494 7.08432L9.94897 7.00118L7.65332 3.55078L12.494 7.08432Z" fill="#F6851B" stroke="#F6851B" stroke-width="0.04619"/>
<path d="M16.4296 11.1641L15.4643 14.5221L15.3857 12.8823L16.4296 11.1641Z" fill="#E4751F" stroke="#E4751F" stroke-width="0.04619"/>
<path d="M13.459 11.492L16.429 11.1641L15.3851 12.8823L13.459 11.492Z" fill="#CD6116" stroke="#CD6116" stroke-width="0.04619"/>
<path d="M9.94922 7.00195L12.4943 7.08509L13.4597 11.4916L9.94922 7.00195Z" fill="#F6851B" stroke="#F6851B" stroke-width="0.04619"/>
<path d="M9.94898 7.00223L3.08052 0.646484L7.65333 3.55184L9.94898 7.00223ZM7.64872 18.134L1.68096 19.9816L0.489258 15.4319L7.64872 18.134Z" fill="#E4761B" stroke="#E4761B" stroke-width="0.04619"/>
<path d="M2.45703 10.7242L4.71111 8.95508L6.60028 9.39388L2.45703 10.7242Z" fill="#763D16" stroke="#763D16" stroke-width="0.04619"/>
<path d="M6.60011 9.39368L4.71094 8.95488L5.7225 4.7793L6.60011 9.39368Z" fill="#763D16" stroke="#763D16" stroke-width="0.04619"/>
<path d="M1.90723 9.25993L4.71096 8.95508L2.45689 10.7242L1.90723 9.25993Z" fill="#763D16" stroke="#763D16" stroke-width="0.04619"/>
<path d="M15.3851 12.8825L14.2211 12.2959L13.459 11.4922L15.3851 12.8825Z" fill="#CD6116" stroke="#CD6116" stroke-width="0.04619"/>
<path d="M1.9076 9.25945L1.70898 8.21094L4.71134 8.9546L1.9076 9.25945Z" fill="#763D16" stroke="#763D16" stroke-width="0.04619"/>
<path d="M13.9814 13.616L14.2216 12.2949L15.3856 12.8815L13.9814 13.616Z" fill="#233447" stroke="#233447" stroke-width="0.04619"/>
<path d="M15.4641 14.5206L13.9814 13.6153L15.3856 12.8809L15.4641 14.5206Z" fill="#F6851B" stroke="#F6851B" stroke-width="0.04619"/>
<path d="M4.71103 8.95488L1.70867 8.21122L1.46387 7.32899L4.71103 8.95488ZM5.72259 4.7793L4.71103 8.95488L1.46387 7.32899L5.72259 4.7793ZM5.72259 4.7793L9.94898 7.00104L6.6002 9.39368L5.72259 4.7793Z" fill="#763D16" stroke="#763D16" stroke-width="0.04619"/>
<path d="M6.60059 9.3946L9.94936 7.00195L11.4413 11.5609L6.60059 9.3946ZM11.4413 11.5609L6.81306 11.4639L6.60059 9.3946L11.4413 11.5609Z" fill="#E4761B" stroke="#E4761B" stroke-width="0.04619"/>
<path d="M2.45703 10.7249L6.60028 9.3946L6.81275 11.4639L2.45703 10.7249ZM13.4595 11.4916L11.441 11.5609L9.94906 7.00195L13.4595 11.4916Z" fill="#F6851B" stroke="#F6851B" stroke-width="0.04619"/>
<path d="M14.2211 12.2959L13.9809 13.6169L13.459 11.4922L14.2211 12.2959Z" fill="#CD6116" stroke="#CD6116" stroke-width="0.04619"/>
<path d="M3.08105 0.646484L9.94951 7.00223L5.72312 4.78049L3.08105 0.646484Z" fill="#763D16" stroke="#763D16" stroke-width="0.04619"/>
<path d="M0.489258 15.4316L6.28149 15.1914L7.64871 18.1337L0.489258 15.4316Z" fill="#E4761B" stroke="#E4761B" stroke-width="0.04619"/>
<path d="M7.64847 18.1336L6.28125 15.1913L9.12656 15.0527L7.64847 18.1336Z" fill="#CD6116" stroke="#CD6116" stroke-width="0.04619"/>
<path d="M13.9814 13.6161L15.4641 14.5214L16.2816 16.4476L13.9814 13.6161ZM6.81267 11.4636L0.489258 15.4314L2.45695 10.7246L6.81267 11.4636ZM6.28149 15.1912L0.489258 15.4314L6.81267 11.4636L6.28149 15.1912ZM13.4594 11.4914L13.8382 12.8678L12.0091 12.9741L13.4594 11.4914ZM12.0091 12.9741L11.4409 11.5606L13.4594 11.4914L12.0091 12.9741Z" fill="#F6851B" stroke="#F6851B" stroke-width="0.04619"/>
<path d="M9.20504 18.7425L7.64844 18.1328L13.0619 19.0428L9.20504 18.7425Z" fill="#C0AD9E" stroke="#C0AD9E" stroke-width="0.04619"/>
<path d="M2.45716 10.724L1.57031 9.58772L1.9075 9.25977L2.45716 10.724Z" fill="#763D16" stroke="#763D16" stroke-width="0.04619"/>
<path d="M13.6762 18.3684L13.0619 19.0428L7.64844 18.1328L13.6762 18.3684Z" fill="#D7C1B3" stroke="#D7C1B3" stroke-width="0.04619"/>
<path d="M13.9672 16.7156L7.64844 18.1336L9.12652 15.0527L13.9672 16.7156Z" fill="#E4761B" stroke="#E4761B" stroke-width="0.04619"/>
<path d="M7.64844 18.1329L13.9672 16.7148L13.6762 18.3684L7.64844 18.1329Z" fill="#D7C1B3" stroke="#D7C1B3" stroke-width="0.04619"/>
<path d="M1.46371 7.32936L1.25586 3.77734L5.72244 4.77967L1.46371 7.32936ZM1.90714 9.2601L1.29281 8.63654L1.70852 8.21159L1.90714 9.2601Z" fill="#763D16" stroke="#763D16" stroke-width="0.04619"/>
<path d="M10.4062 12.4751L11.4409 11.5605L11.2931 13.7961L10.4062 12.4751Z" fill="#CD6116" stroke="#CD6116" stroke-width="0.04619"/>
<path d="M11.4408 11.5605L10.4062 12.4751L8.90039 13.2557L11.4408 11.5605Z" fill="#CD6116" stroke="#CD6116" stroke-width="0.04619"/>
<path d="M16.2817 16.4467L16 16.2388L13.9814 13.6152L16.2817 16.4467Z" fill="#F6851B" stroke="#F6851B" stroke-width="0.04619"/>
<path d="M8.90029 13.2551L6.8125 11.4629L11.4407 11.5599L8.90029 13.2551Z" fill="#CD6116" stroke="#CD6116" stroke-width="0.04619"/>
<path d="M11.293 13.7961L11.4408 11.5605L12.0089 12.974L11.293 13.7961Z" fill="#E4751F" stroke="#E4751F" stroke-width="0.04619"/>
<path d="M1.08984 7.68112L1.46398 7.33008L1.70879 8.21231L1.08984 7.68112Z" fill="#763D16" stroke="#763D16" stroke-width="0.04619"/>
<path d="M11.293 13.7956L8.90039 13.2552L10.4062 12.4746L11.293 13.7956Z" fill="#233447" stroke="#233447" stroke-width="0.04619"/>
<path d="M5.72244 4.78049L1.25586 3.77817L3.08037 0.646484L5.72244 4.78049Z" fill="#763D16" stroke="#763D16" stroke-width="0.04619"/>
<path d="M13.0619 19.0424L13.316 19.7353L9.20508 18.7422L13.0619 19.0424Z" fill="#C0AD9E" stroke="#C0AD9E" stroke-width="0.04619"/>
<path d="M9.12672 15.0527L8.90039 13.2559L11.293 13.7963L9.12672 15.0527Z" fill="#F6851B" stroke="#F6851B" stroke-width="0.04619"/>
<path d="M6.8125 11.4629L8.90029 13.2551L9.12662 15.0519L6.8125 11.4629Z" fill="#E4751F" stroke="#E4751F" stroke-width="0.04619"/>
<path d="M12.0088 12.9733L13.8379 12.8671L15.9996 16.2389L12.0088 12.9733ZM6.81244 11.4629L9.12656 15.0519L6.28125 15.1904L6.81244 11.4629Z" fill="#F6851B" stroke="#F6851B" stroke-width="0.04619"/>
<path d="M12.0089 12.9746L14.2815 16.4342L11.293 13.7968L12.0089 12.9746Z" fill="#E4751F" stroke="#E4751F" stroke-width="0.04619"/>
<path d="M11.293 13.7969L14.2815 16.4343L13.9674 16.7161L11.293 13.7969Z" fill="#F6851B" stroke="#F6851B" stroke-width="0.04619"/>
<path d="M13.9677 16.716L9.12695 15.0532L11.2933 13.7968L13.9677 16.716ZM16 16.2402L14.2818 16.4342L12.0092 12.9746L16 16.2402Z" fill="#F6851B" stroke="#F6851B" stroke-width="0.04619"/>
<path d="M16.4528 17.8652L15.7138 19.3479L13.3165 19.7359L16.4528 17.8652ZM13.3165 19.7359L13.0625 19.0431L13.6768 18.3687L13.3165 19.7359Z" fill="#C0AD9E" stroke="#C0AD9E" stroke-width="0.04619"/>
<path d="M13.6767 18.3687L14.1294 18.1886L13.3164 19.7359L13.6767 18.3687ZM13.3164 19.7359L14.1294 18.1886L16.4527 17.8652L13.3164 19.7359Z" fill="#C0AD9E" stroke="#C0AD9E" stroke-width="0.04619"/>
<path d="M16.0002 16.2402L16.5683 16.5867L14.8408 16.7945L16.0002 16.2402Z" fill="#161616" stroke="#161616" stroke-width="0.04619"/>
<path d="M14.8401 16.7945L14.2812 16.4342L15.9995 16.2402L14.8401 16.7945ZM14.6415 17.067L16.7432 16.813L16.4522 17.8661L14.6415 17.067Z" fill="#161616" stroke="#161616" stroke-width="0.04619"/>
<path d="M16.4528 17.8655L14.1294 18.1888L14.6421 17.0664L16.4528 17.8655ZM14.1294 18.1888L13.6768 18.369L13.9678 16.7154L14.1294 18.1888ZM13.9678 16.7154L14.2818 16.4336L14.8407 16.7939L13.9678 16.7154ZM16.5683 16.586L16.7438 16.8124L14.6421 17.0664L16.5683 16.586Z" fill="#161616" stroke="#161616" stroke-width="0.04619"/>
<path d="M14.6421 17.0663L14.8408 16.7938L16.5683 16.5859L14.6421 17.0663ZM13.9678 16.7153L14.6421 17.0663L14.1294 18.1887L13.9678 16.7153Z" fill="#161616" stroke="#161616" stroke-width="0.04619"/>
<path d="M14.8408 16.7934L14.6421 17.0659L13.9678 16.7148L14.8408 16.7934Z" fill="#161616" stroke="#161616" stroke-width="0.04619"/>
</g>
<defs>
<clipPath id="clip0">
<rect width="18.6637" height="19.4091" fill="white" transform="translate(0.400391 0.599609)"/>
</clipPath>
</defs>
</svg>
