<svg width="24" height="16" viewBox="0 0 24 16" fill="none" xmlns="http://www.w3.org/2000/svg">
<g clip-path="url(#clip0)">
<path d="M5.00815 3.5233C8.90191 -0.289016 15.2149 -0.289016 19.1087 3.5233L19.5773 3.98212C19.772 4.17273 19.772 4.48178 19.5773 4.6724L17.9743 6.24192C17.8769 6.33723 17.7191 6.33723 17.6217 6.24192L16.9769 5.61053C14.2605 2.95097 9.85636 2.95097 7.13998 5.61053L6.44937 6.2867C6.35202 6.38201 6.1942 6.38201 6.09685 6.2867L4.4938 4.71717C4.29911 4.52656 4.29911 4.21751 4.4938 4.02689L5.00815 3.5233ZM22.424 6.76924L23.8507 8.16613C24.0454 8.35674 24.0454 8.66579 23.8507 8.85641L17.4175 15.1551C17.2228 15.3458 16.9072 15.3458 16.7125 15.1551C16.7125 15.1551 16.7125 15.1551 16.7125 15.1551L12.1466 10.6847C12.0979 10.6371 12.019 10.6371 11.9703 10.6847C11.9703 10.6847 11.9703 10.6847 11.9703 10.6847L7.40453 15.1551C7.20985 15.3458 6.8942 15.3458 6.69951 15.1551C6.6995 15.1551 6.6995 15.1551 6.6995 15.1551L0.266133 8.85633C0.0714452 8.66571 0.0714452 8.35666 0.266133 8.16604L1.69286 6.76916C1.88755 6.57855 2.2032 6.57855 2.39789 6.76916L6.96384 11.2396C7.01251 11.2873 7.09142 11.2873 7.1401 11.2396C7.1401 11.2396 7.1401 11.2396 7.1401 11.2396L11.7058 6.76916C11.9005 6.57854 12.2162 6.57853 12.4108 6.76915C12.4109 6.76915 12.4109 6.76915 12.4109 6.76915L16.9768 11.2396C17.0255 11.2873 17.1044 11.2873 17.1531 11.2396L21.7189 6.76924C21.9136 6.57863 22.2293 6.57863 22.424 6.76924Z" fill="#3B99FC"/>
</g>
<defs>
<clipPath id="clip0">
<rect width="23.8826" height="14.7276" fill="white" transform="translate(0.117188 0.636719)"/>
</clipPath>
</defs>
</svg>
